<svg width="187.176270" height="210.443451" viewBox="0 0 187.176 210.443" fill="none" xmlns="http://www.w3.org/2000/svg" xmlns:xlink="http://www.w3.org/1999/xlink">
	<desc>
			Created with Pixso.
	</desc>
	<defs/>
	<path id="Vector 1" d="M21.57 156.35C30.07 170.79 55.52 192.73 89.32 164.88C131.57 130.08 89.82 106.09 64.63 122.31C39.45 138.53 60.26 168.91 89.32 164.88M89.32 164.88C101.12 165.03 127.71 162.17 139.64 149.49C154.57 133.65 146.96 97.43 135.46 77.43" stroke="#C4C4C4" stroke-opacity="0.700000" stroke-width="3.000000" stroke-dasharray="9 9"/>
	<path id="Polygon 2" d="M129.3 46.28L144.91 60.62C149.25 64.6 147.94 71.74 142.49 73.94L125.54 80.75C120.08 82.95 114.2 78.7 114.57 72.83L115.9 51.66C116.33 44.95 124.35 41.72 129.3 46.28Z" fill="#C4C4C4" fill-opacity="0.700000" fill-rule="nonzero"/>
</svg>
