<svg width="20.000000" height="20.000000" viewBox="0 0 20 20" fill="none" xmlns="http://www.w3.org/2000/svg" xmlns:xlink="http://www.w3.org/1999/xlink">
	<desc>
			Created with Pixso.
	</desc>
	<defs>
		<clipPath id="clip7_71">
			<rect id="Shopping cart" rx="-0.500000" width="19.000000" height="19.000000" transform="translate(0.500000 0.500000)" fill="white" fill-opacity="0"/>
		</clipPath>
	</defs>
	<rect id="Shopping cart" rx="-0.500000" width="19.000000" height="19.000000" transform="translate(0.500000 0.500000)" fill="#FFFFFF" fill-opacity="0"/>
	<g clip-path="url(#clip7_71)">
		<path id="Vector" d="M5.83 15C4.91 15 4.17 15.75 4.17 16.66C4.17 17.58 4.91 18.33 5.83 18.33C6.75 18.33 7.5 17.58 7.5 16.66C7.5 15.75 6.75 15 5.83 15ZM0.83 1.66L0.83 3.33L2.5 3.33L5.5 9.65L4.37 11.7C4.24 11.93 4.16 12.2 4.16 12.5C4.16 13.41 4.91 14.16 5.83 14.16L15.83 14.16L15.83 12.5L6.18 12.5C6.06 12.5 5.97 12.4 5.97 12.29L6 12.19L6.75 10.83L12.95 10.83C13.58 10.83 14.13 10.49 14.41 9.97L17.4 4.56C17.46 4.44 17.5 4.3 17.5 4.16C17.5 3.7 17.12 3.33 16.66 3.33L4.34 3.33L3.55 1.66L0.83 1.66ZM14.16 15C13.25 15 12.5 15.75 12.5 16.66C12.5 17.58 13.25 18.33 14.16 18.33C15.08 18.33 15.83 17.58 15.83 16.66C15.83 15.75 15.08 15 14.16 15Z" fill="#909090" fill-opacity="1.000000" fill-rule="nonzero"/>
	</g>
</svg>
